<svg id="visual" viewBox="0 0 900 900" width="900" height="900" xmlns="http://www.w3.org/2000/svg" xmlns:xlink="http://www.w3.org/1999/xlink" version="1.1"><path d="M0 451L13.7 451C27.3 451 54.7 451 82 443.7C109.3 436.3 136.7 421.7 163.8 403.3C191 385 218 363 245.2 381.8C272.3 400.7 299.7 460.3 327 484.8C354.3 509.3 381.7 498.7 409 470C436.3 441.3 463.7 394.7 491 369.7C518.3 344.7 545.7 341.3 573 356.2C600.3 371 627.7 404 654.8 412.7C682 421.3 709 405.7 736.2 402C763.3 398.3 790.7 406.7 818 431.2C845.3 455.7 872.7 496.3 886.3 516.7L900 537L900 0L886.3 0C872.7 0 845.3 0 818 0C790.7 0 763.3 0 736.2 0C709 0 682 0 654.8 0C627.7 0 600.3 0 573 0C545.7 0 518.3 0 491 0C463.7 0 436.3 0 409 0C381.7 0 354.3 0 327 0C299.7 0 272.3 0 245.2 0C218 0 191 0 163.8 0C136.7 0 109.3 0 82 0C54.7 0 27.3 0 13.7 0L0 0Z" fill="#f4deff" stroke-linecap="round" stroke-linejoin="miter"></path></svg>